<svg xmlns="http://www.w3.org/2000/svg" viewBox="0 0 313.25 103.97">
  <defs>
    <style>
      .cls-1 {
        stroke: #1d1d1b;
        stroke-miterlimit: 10;
        stroke-width: 0.57px;
      }

      .cls-2 {
        fill: #ee79a5;
      }

      .cls-3 {
        fill: #4d8158;
      }

      .cls-4 {
        fill: #fff;
      }
    </style>
  </defs>
  <g id="Layer_2" data-name="Layer 2">
    <g id="Layer_1-2" data-name="Layer 1">
      <g>
        <path d="M119.16,72.05h-6.68c1.66-1.64,1.9-3.59,1.9-5.59q0-19.69,0-39.39a5.32,5.32,0,0,0-.17-.94H114L96.41,67c-.25-.24-.53-.4-.64-.63q-2.42-4.89-4.8-9.78c-1.38-2.84-2.73-5.7-4.11-8.54-1.55-3.17-3.13-6.33-4.68-9.5q-2.06-4.23-4.1-8.47a10.9,10.9,0,0,0-.77-1.15,9.37,9.37,0,0,0-.12,1c0,11.47,0,22.93,0,34.4,0,2.39.51,4.77.76,7.15,0,.21-.13.63-.23.63-.75.06-1.51,0-2.36,0,1.13-4.65.82-9.22.83-13.77,0-9.77,0-19.55,0-29.33A10.13,10.13,0,0,0,75,23.71a4.36,4.36,0,0,1-.29-.78c.91,0,1.69,0,2.47,0,.15,0,.34.26.43.44q1.45,2.84,2.86,5.69c1.06,2.15,2.1,4.31,3.16,6.46,1.22,2.48,2.46,5,3.68,7.44l3.78,7.65c1,2.08,2,4.16,3.07,6.25.85,1.75,1.69,3.51,2.56,5.26a.92.92,0,0,0,.56.4c.08,0,.3-.26.38-.44,1.09-2.51,2.18-5,3.25-7.55.9-2.09,1.76-4.19,2.65-6.28s1.81-4.17,2.71-6.25c.74-1.73,1.45-3.47,2.18-5.19.9-2.09,1.81-4.17,2.71-6.25.72-1.68,1.43-3.37,2.14-5a2.55,2.55,0,0,1,.2-.48,1.41,1.41,0,0,0-.33-2.09h5.43a5.05,5.05,0,0,0-1.29,4c0,12.91,0,25.81,0,38.72a21.29,21.29,0,0,0,.8,4.72A6.37,6.37,0,0,0,119.16,72.05Z"/>
        <path d="M216.56,72c1.64-1.68,1.9-3.67,1.9-5.73q0-8,0-16.08,0-11.7,0-23.38c0-1.38,0-2.75-1.3-3.85.48,0,.76-.1,1.05-.1,4.22,0,8.44-.07,12.66,0A27.64,27.64,0,0,1,240,24.64a24.14,24.14,0,0,1,11.39,8.59,22.86,22.86,0,0,1,3.25,6.54,25.13,25.13,0,0,1,.8,11.55,23.81,23.81,0,0,1-2.21,6.89,24.69,24.69,0,0,1-6.45,8.23,23.81,23.81,0,0,1-7.72,4.33,24.84,24.84,0,0,1-8,1.38H217.67A10.87,10.87,0,0,1,216.56,72Zm4.82-24.51V63.16q0,3.6,0,7.22c0,.47.06.85.67.83,4.28-.17,8.57.37,12.84-.4a20.29,20.29,0,0,0,13.76-9.47,27.18,27.18,0,0,0,2.46-5.13,39.56,39.56,0,0,0,1.21-5.56,25,25,0,0,0-.74-10.75,21.53,21.53,0,0,0-3.33-7.15,20.37,20.37,0,0,0-13-8.39,36.23,36.23,0,0,0-6-.5c-2.21-.09-4.42,0-6.63,0-1.28,0-1.29,0-1.29,1.28Z"/>
        <path d="M6.81,72.05H0c1.73-1.73,1.91-3.79,1.91-5.89,0-5.24,0-10.48,0-15.71q0-12,0-24.05A3.78,3.78,0,0,0,.65,23a5.17,5.17,0,0,1,.76-.12c4.07,0,8.14,0,12.21.06a32.83,32.83,0,0,1,9.17,1.4,15.19,15.19,0,0,1,8.06,5.4,13.65,13.65,0,0,1,2.31,5.57,16,16,0,0,1-.07,6.5,14.83,14.83,0,0,1-4.93,8.27A17.82,17.82,0,0,1,23,53.26c-1.42.55-2.92.89-4.38,1.34-.46.14-.91.32-1.37.48l.05.26,1.55.6a19.15,19.15,0,0,1,8.88,7.16C29.05,65,30.25,67,31.54,68.85a6.39,6.39,0,0,0,3.87,2.93s.05.07.25.34A15.57,15.57,0,0,1,33.77,72c-3-.65-4.88-2.75-6.48-5.18-1.83-2.76-3.41-5.72-6-7.93a12.36,12.36,0,0,0-7-3.3c-2.86-.26-5.74-.22-8.62-.29-.6,0-.88.32-.87.94,0,3.45,0,6.9,0,10.35a8.17,8.17,0,0,0,1.27,4.74C6.3,71.49,6.49,71.68,6.81,72.05Zm-2-32.92c0,4.86,0,9.72,0,14.59,0,.56.13.93.76.91,3.86-.13,7.73.31,11.58-.43a17.72,17.72,0,0,0,8.23-3.84,14.58,14.58,0,0,0,5.11-10.89A21.26,21.26,0,0,0,29.8,33a10.59,10.59,0,0,0-4.37-6.31,17.35,17.35,0,0,0-8.79-2.87c-3.53-.25-7.09-.21-10.63-.28-1,0-1.17.16-1.17,1.16Z"/>
        <path d="M173.44,22.91c1.19,0,2.4-.05,3.6,0,.28,0,.59.43.78.72q5.27,8,10.49,15.92l10.62,16.19,6.79,10.28c.06.11.1.23.15.34l.29-.1c0-.37.11-.74.12-1.1V51.64c0-7.47,0-14.94,0-22.41a11.64,11.64,0,0,0-1-5.64,3.18,3.18,0,0,1-.18-.6h3.32c-.31,1-.66,2-.9,3a10.28,10.28,0,0,0-.28,2.35q0,18.84,0,37.67c0,2,.28,3.9.44,5.94a1.25,1.25,0,0,1-1.8-.45c-1.38-2.09-2.73-4.19-4.1-6.28q-3-4.56-6-9.11l-6.1-9.21L183,36.71q-3.53-5.37-7.06-10.72c-.2-.3-.45-.58-.8-1a6.37,6.37,0,0,0-.21,1c0,1.09-.07,2.18-.07,3.28,0,11.39,0,22.78,0,34.17,0,2.52.34,5,.54,7.56a7.65,7.65,0,0,0,.3,1.2c-.85,0-1.64,0-2.44,0-.08,0-.22-.38-.2-.58.26-2.6.76-5.21.78-7.82.09-11.51.06-23,0-34.54C173.86,27.13,173.6,25.1,173.44,22.91Z"/>
        <path d="M57.82,42.82c.51.63.51,8.26.12,8.77a27,27,0,0,0-2-2.55,4.59,4.59,0,0,0-3.29-1.37c-2,0-4,0-6,0-.68,0-.92.24-.92.92,0,3.64,0,7.29,0,10.94V70.21c0,1,0,1,1,1,4.4,0,8.79,0,13.19,0,2.68,0,4.37-1.42,5.56-3.65a10.47,10.47,0,0,1,.83-1.5,4.17,4.17,0,0,1,.17.84c0,1.41,0,2.83,0,4.24,0,.93,0,1-1,1H41.8a9.81,9.81,0,0,1-1-.1c1.75-1.67,2-3.75,2-5.79.06-13.35,0-26.7,0-40A4.09,4.09,0,0,0,41.46,23c.48,0,.82-.07,1.16-.07h22.8c1,0,1,.07,1,1.07q0,2,0,4a10.16,10.16,0,0,1-.18,1.13c-.5-1-.85-1.84-1.32-2.6a5.37,5.37,0,0,0-4.82-2.71q-6.76,0-13.55,0c-.65,0-.88.23-.88.87q0,10.68,0,21.37c0,.57.16.89.8.88,2.08,0,4.17,0,6.25-.08a5.48,5.48,0,0,0,4.83-3.53C57.66,43.13,57.73,43,57.82,42.82Z"/>
        <path d="M128.84,72h-5.55c2.52-2.14,3.67-4.89,4.76-7.69.86-2.23,1.81-4.43,2.7-6.65.73-1.81,1.43-3.63,2.16-5.44l2.23-5.49c.73-1.81,1.44-3.62,2.16-5.44L139.46,36l2.22-5.5,2.25-5.56a15,15,0,0,1,.61-1.43c.12-.23.41-.56.56-.54a1.26,1.26,0,0,1,.8.53c.42.81.74,1.67,1.1,2.51,1.09,2.52,2.18,5,3.26,7.55.89,2.07,1.76,4.14,2.65,6.2s1.82,4.17,2.72,6.26,1.76,4.13,2.65,6.2L161,58.44c.89,2.07,1.74,4.15,2.67,6.19a32.84,32.84,0,0,0,2.43,4.81,16,16,0,0,0,2.78,2.6h-7.8a4.84,4.84,0,0,0,.43-5.56,41.76,41.76,0,0,1-2.11-4.81A12.94,12.94,0,0,0,155.23,56a21.35,21.35,0,0,0-5.85-3.74A17.45,17.45,0,0,0,139,51c-1.4.3-2.77.73-4.18,1-.94.15-1.14.84-1.42,1.5-1.13,2.74-2.2,5.51-3.35,8.24s-2.15,5.24-1.67,8.17C128.49,70.58,128.67,71.26,128.84,72Zm27.78-15.72.23-.08a7.32,7.32,0,0,0-.24-.92c-.57-1.34-1.16-2.67-1.74-4-.72-1.65-1.43-3.31-2.15-5L150,40.19c-.88-2-1.75-4.09-2.63-6.12s-1.83-4.16-2.75-6.23a2.71,2.71,0,0,0-.41-.55c-.2.2-.48.36-.57.59-.74,1.81-1.43,3.63-2.15,5.44-1.06,2.64-2.15,5.26-3.2,7.9-1.23,3.09-2.44,6.2-3.66,9.3-.24.61-.15.77.51.65,1-.18,2-.47,3-.65a19.37,19.37,0,0,1,15.36,3.33C154.57,54.62,155.58,55.49,156.62,56.31Z"/>
      </g>
      <g>
        <path class="cls-1" d="M141.38,85.37l.42,0c1.25,0,2.51,0,3.77,0a13.5,13.5,0,0,1,3.84.54,5.41,5.41,0,0,1,2.92,2,5.09,5.09,0,0,1,.83,2,6.11,6.11,0,0,1,0,2.41,5.5,5.5,0,0,1-1.79,3.1,6.23,6.23,0,0,1-1.87,1.18c-.51.2-1.06.33-1.59.5l-.49.18,0,.08,1,.43a6.56,6.56,0,0,1,2.62,2.23c.54.76,1,1.57,1.54,2.35a2.36,2.36,0,0,0,1.42,1.11s0,0,.08.13a6.14,6.14,0,0,1-.68-.06,3.89,3.89,0,0,1-2.35-1.93,15.33,15.33,0,0,0-2-2.76,4.53,4.53,0,0,0-2.76-1.41c-1-.11-2.08-.08-3.12-.11-.19,0-.29.12-.29.32,0,1.33,0,2.66,0,4a2.88,2.88,0,0,0,.45,1.65l.2.22a7.27,7.27,0,0,1-2.38,0,3,3,0,0,0,.65-2.23V86.49A1.37,1.37,0,0,0,141.38,85.37Zm1.52,6v5.42c0,.22,0,.36.29.35a25.66,25.66,0,0,0,4.2-.16,6.3,6.3,0,0,0,3-1.42,5.31,5.31,0,0,0,1.85-4,11.45,11.45,0,0,0-.26-2.4,3.64,3.64,0,0,0-1.56-2.36,6.19,6.19,0,0,0-3.24-1.07c-1.26-.09-2.53-.08-3.79-.1-.39,0-.44,0-.44.44Z"/>
        <path class="cls-1" d="M117.88,103.61H116a9,9,0,0,0,.79-1c.31-.57.58-1.17.84-1.77s.55-1.38.82-2.07l.78-2,.81-2.07.78-2c.27-.7.55-1.39.82-2.09s.53-1.35.79-2l.78-2c.14-.35.28-.7.43-1,0-.09.15-.21.21-.19a.42.42,0,0,1,.28.2c.21.46.39.93.59,1.39.31.76.63,1.52,1,2.28s.66,1.55,1,2.32.67,1.59,1,2.38.63,1.54,1,2.3l1,2.28c.33.77.65,1.55,1,2.32a18.66,18.66,0,0,0,.83,1.75,2.27,2.27,0,0,0,1.13,1,10.85,10.85,0,0,1-2.85,0c.07-.13.15-.25.21-.37a1.83,1.83,0,0,0-.05-1.55c-.39-.91-.77-1.84-1.19-2.74a3.51,3.51,0,0,0-.65-.8,8,8,0,0,0-2.61-1.86,6.18,6.18,0,0,0-3.79-.46c-.49.11-1,.26-1.46.35-.33,0-.43.29-.53.54l-1.22,3.09a5.5,5.5,0,0,0-.62,2.84C117.76,102.94,117.82,103.25,117.88,103.61ZM128,97.78l.07,0a.9.9,0,0,0,0-.28l-1-2.5-1.59-3.73c-.58-1.37-1.17-2.74-1.75-4.1,0-.06-.1-.14-.14-.14a.36.36,0,0,0-.18.14c-.07.15-.12.31-.18.46l-1.49,3.87L120,95.57a2.27,2.27,0,0,0-.06.25,1.33,1.33,0,0,0,.28,0c.38-.08.75-.2,1.13-.27a7.19,7.19,0,0,1,3.23.15,7.46,7.46,0,0,1,2.6,1.4C127.46,97.34,127.71,97.56,128,97.78Z"/>
        <path class="cls-1" d="M162.55,87.91c0-.23,0-.39,0-.54,0-.56,0-1.12,0-1.69,0-.25.1-.34.34-.34h12.36c.4,0,.41,0,.41.41s0,1,0,1.52a.87.87,0,0,1-.09.41c-.08-.21-.15-.41-.24-.62a2.1,2.1,0,0,0-2-1.39H170c-.36,0-.39,0-.39.4q0,7.67,0,15.35a3.84,3.84,0,0,0,.32,1.64,4.44,4.44,0,0,0,.35.54h-2.42a3,3,0,0,0,.69-2.24V86.13c0-.45,0-.45-.45-.45-1,0-2.05,0-3.08,0a2.18,2.18,0,0,0-2.2,1.56C162.74,87.43,162.66,87.62,162.55,87.91Z"/>
      </g>
      <g>
        <path class="cls-2" d="M283.37,37.61a12.35,12.35,0,0,1-1.48-5.38c-.14-1.37-.36-2.74-.52-4.11s-.3-2.5-.4-3.75a45,45,0,0,1-.18-4.92A29.17,29.17,0,0,1,283,8.5a19.21,19.21,0,0,1,4-6.21A7.63,7.63,0,0,1,290.54.14a3.5,3.5,0,0,1,4.54,2.94A9.5,9.5,0,0,1,295,6.27c-.35,2.1-.67,4.21-1.11,6.3-.19.9-.39,1.81-.59,2.71a.62.62,0,0,0,0,.38c.17,0,.21-.13.29-.22a30.94,30.94,0,0,1,5.85-5.58,24,24,0,0,1,8.58-4,5.43,5.43,0,0,1,2.44-.08,3.63,3.63,0,0,1,2.78,3.18,7.11,7.11,0,0,1-1.12,4.35,66.39,66.39,0,0,1-5.77,8.16,64.59,64.59,0,0,1-6,6.58,47,47,0,0,1-12.2,8.58c-1.12.54-2.27,1-3.44,1.44-.1,0-.2.05-.3.08A1.13,1.13,0,0,1,283.37,37.61ZM283,20.26c0,1.46.09,2.91.22,4.36s.28,2.73.45,4.09.41,3,.61,4.49a10.28,10.28,0,0,0,.48,2.2c.07.21.16.28.38.17.63-.28,1.28-.53,1.91-.82a44.84,44.84,0,0,0,11.56-8.07,61.76,61.76,0,0,0,6.29-6.85,59.64,59.64,0,0,0,5.4-7.81,5.42,5.42,0,0,0,.86-2.8,1.27,1.27,0,0,0-1-1.3,3.36,3.36,0,0,0-1.78,0,23.49,23.49,0,0,0-6.59,2.94,29.75,29.75,0,0,0-8.37,8.47,39.2,39.2,0,0,0-2.07,3.47,1,1,0,0,1-.84.67A1.1,1.1,0,0,1,289.26,22c.87-2.85,1.61-5.74,2.25-8.65.52-2.35.88-4.74,1.37-7.1a6.34,6.34,0,0,0,0-3,1.31,1.31,0,0,0-1.84-1,6,6,0,0,0-2.4,1.57,17.68,17.68,0,0,0-4.16,6.71A29.11,29.11,0,0,0,283,20.26Zm10.3-4.48,0,0a.14.14,0,0,0,0,.06l0,0Z"/>
        <path class="cls-3" d="M283.37,37.61a1.13,1.13,0,0,0,1,.52l-2.31,4.28q-1.14,2.12-2.29,4.23t-2.32,4.29a1.2,1.2,0,0,0-.1,1,43,43,0,0,1,1.1,5.28,61.61,61.61,0,0,1,.66,8.14,53.38,53.38,0,0,1-.27,5.93,39.56,39.56,0,0,1-.67,4.32A5.81,5.81,0,0,1,277,77.94a2.13,2.13,0,0,1-3.2-.25,5.6,5.6,0,0,1-.88-2.61,47.14,47.14,0,0,1-.43-6.61A54.13,54.13,0,0,1,274,56.25c.28-1.15.58-2.3.93-3.43a.72.72,0,0,0,0-.54,95.52,95.52,0,0,0-4.42-8.6c-3.08-5.68-6.2-11.34-9.28-17a9.44,9.44,0,0,0-2.56-2.78l-.44-.34h6.21c0,.14-.1.24-.16.36a2.88,2.88,0,0,0,0,2.92c.8,1.42,1.57,2.86,2.36,4.29,1.07,1.94,2.13,3.89,3.2,5.84l6.42,11.68c.17.3.32.62.51,1,.37-.64.7-1.23,1-1.82l5.56-10.07Zm-7.56,16.55c-.14.07-.13.16-.15.24a52.29,52.29,0,0,0-1.94,13.17c0,2.05.07,4.11.16,6.16a7,7,0,0,0,.52,2.61,1.68,1.68,0,0,0,1.13,1.08.39.39,0,0,0,.47-.17,4.05,4.05,0,0,0,.46-1A13.42,13.42,0,0,0,277,72c.1-2.77,0-5.54,0-8.32,0-.81-.08-1.62-.14-2.42-.15-1.74-.39-3.46-.69-5.17C276.07,55.47,275.94,54.83,275.81,54.16Z"/>
        <path class="cls-4" d="M293.25,15.78l0,.06,0,0a.14.14,0,0,1,0-.06Z"/>
      </g>
    </g>
  </g>
</svg>
